<svg width="700" height="700" viewBox="0 0 700 700" fill="none" xmlns="http://www.w3.org/2000/svg">
<rect width="700" height="700" rx="350" fill="black"/>
<path d="M272.56 375.824L208.302 302.268L272.56 228.712C277.752 222.762 277.147 213.725 271.196 208.528C265.245 203.335 256.214 203.946 251.012 209.892L178.533 292.86C173.822 298.248 173.822 306.293 178.533 311.681L251.012 394.65C253.844 397.883 257.807 399.542 261.793 399.542C265.131 399.542 268.483 398.379 271.196 396.009C277.147 390.812 277.757 381.775 272.56 375.824Z" fill="white"/>
<path d="M421.046 287.963H189.305C181.404 287.963 175 294.366 175 302.268C175 310.169 181.404 316.573 189.305 316.573H421.046C462.592 316.573 496.39 350.37 496.39 391.912C496.39 433.454 462.592 467.252 421.046 467.252H208.379C200.478 467.252 194.074 473.656 194.074 481.557C194.074 489.458 200.478 495.862 208.379 495.862H421.046C478.361 495.862 525 449.228 525 391.912C525 334.597 478.366 287.963 421.046 287.963Z" fill="white"/>
</svg>
