<svg width="40" height="46" viewBox="0 0 40 46" fill="none" xmlns="http://www.w3.org/2000/svg">
<path d="M1.90483 45.7151C1.39964 45.7151 0.915138 45.5144 0.557913 45.1572C0.200687 44.8 0 44.3155 0 43.8103V1.90398C0.000149589 1.5695 0.0883721 1.24095 0.255794 0.951386C0.423216 0.66182 0.663934 0.421445 0.953738 0.254436C1.24354 0.0874271 1.57221 -0.000326281 1.90669 9.11624e-07C2.24118 0.000328105 2.56968 0.0887252 2.85915 0.256301L39.051 21.2095C39.3396 21.3769 39.5792 21.6172 39.7458 21.9064C39.9123 22.1956 40 22.5234 40 22.8571C40 23.1908 39.9123 23.5187 39.7458 23.8079C39.5792 24.097 39.3396 24.3374 39.051 24.5048L2.85915 45.458C2.56928 45.6263 2.24005 45.715 1.90483 45.7151V45.7151Z" fill="white"/>
</svg>
